<?xml version="1.0" encoding="UTF-8" standalone="no"?>
<!DOCTYPE svg PUBLIC "-//W3C//DTD SVG 1.1//EN" "http://www.w3.org/Graphics/SVG/1.1/DTD/svg11.dtd">
<svg width="100%" height="100%" viewBox="0 0 400 400" version="1.1" xmlns="http://www.w3.org/2000/svg" xmlns:xlink="http://www.w3.org/1999/xlink" xml:space="preserve" xmlns:serif="http://www.serif.com/" style="fill-rule:evenodd;clip-rule:evenodd;stroke-linecap:round;stroke-linejoin:round;stroke-miterlimit:1.5;">
    <path d="M370.563,382.173C367.284,331.205 366.773,280.08 363.356,229.11C362.573,217.431 360.941,205.791 360.4,194.099C359.042,164.748 359.083,135.157 359.256,105.786C359.391,82.779 359.185,60.179 362.076,37.338" style="fill:none;stroke:currentColor;stroke-width:35px;"/>
    <path d="M366.338,24.362C324.612,23.322 283.215,31.568 241.537,29.488C222.922,28.559 204.627,25.924 186.084,24.287C167.658,22.66 149.126,22.052 130.676,20.634C113.517,19.316 95.765,17.422 78.528,17.903C58.642,18.458 39.2,21.591 19.673,25.098" style="fill:none;stroke:currentColor;stroke-width:35px;"/>
    <path d="M19.414,24.967C31.082,68.132 26.094,113.581 26.731,157.602C27.234,192.402 27.414,227.656 29.151,262.42C30.723,293.887 33.791,325.301 34.402,356.815" style="fill:none;stroke:currentColor;stroke-width:35px;"/>
    <path d="M376.97,379.47C305.738,372.821 234.036,374.09 162.644,370.596C138.902,369.434 115.742,364.729 92.183,362.324C75.355,360.606 57.583,360.691 40.658,361.321" style="fill:none;stroke:currentColor;stroke-width:35px;"/>
    <path d="M258.483,229.051C243.193,243.251 231.428,260.959 219.184,277.735C215.886,282.253 212.86,286.96 209.954,291.738C209.523,292.446 208.225,295.944 207.297,296.171C205.199,296.684 201.389,294.506 199.745,293.566C192.944,289.675 187.977,282.714 183.846,276.236C168.499,252.163 156.384,226.177 141.012,202.057" style="fill:none;stroke:currentColor;stroke-width:35px;"/>
    <path d="M192.18,107.014C193.577,127.318 195.278,147.918 195.368,168.279C195.421,180.125 194.266,191.892 194.173,203.725" style="fill:none;stroke:currentColor;stroke-width:35px;"/>
</svg>
