<?xml version="1.0" encoding="UTF-8" standalone="no"?>
<!DOCTYPE svg PUBLIC "-//W3C//DTD SVG 1.1//EN" "http://www.w3.org/Graphics/SVG/1.1/DTD/svg11.dtd">
<svg width="100%" height="100%" viewBox="0 0 400 400" version="1.1" xmlns="http://www.w3.org/2000/svg" xmlns:xlink="http://www.w3.org/1999/xlink" xml:space="preserve" xmlns:serif="http://www.serif.com/" style="fill-rule:evenodd;clip-rule:evenodd;stroke-linecap:round;stroke-linejoin:round;stroke-miterlimit:1.5;">
    <g transform="matrix(6.12323e-17,1,-1,6.12323e-17,400,-0.000228134)">
        <path d="M372.371,382.173C369.092,331.205 368.581,280.08 365.164,229.111C364.381,217.432 362.749,205.792 362.208,194.1C360.85,164.748 360.891,135.157 361.064,105.786C361.199,82.779 360.993,60.179 363.884,37.338" style="fill:none;stroke:currentColor;stroke-width:35px;"/>
    </g>
    <g transform="matrix(6.12323e-17,1,-1,6.12323e-17,400,-0.000228134)">
        <path d="M368.146,24.363C326.42,23.322 285.022,31.568 243.345,29.489C224.73,28.56 206.435,25.924 187.892,24.287C169.466,22.661 150.934,22.052 132.484,20.635C115.325,19.316 97.573,17.422 80.336,17.903C60.45,18.458 41.008,21.591 21.48,25.099" style="fill:none;stroke:currentColor;stroke-width:35px;"/>
    </g>
    <g transform="matrix(6.12323e-17,1,-1,6.12323e-17,400,-0.000228134)">
        <path d="M21.222,24.968C32.89,68.132 27.902,113.581 28.539,157.603C29.042,192.403 29.222,227.657 30.959,262.42C32.531,293.888 35.599,325.302 36.21,356.815" style="fill:none;stroke:currentColor;stroke-width:35px;"/>
    </g>
    <g transform="matrix(6.12323e-17,1,-1,6.12323e-17,400,-0.000228134)">
        <path d="M378.778,379.471C307.546,372.821 235.844,374.09 164.452,370.596C140.709,369.434 117.55,364.729 93.991,362.324C77.163,360.606 59.391,360.692 42.466,361.322" style="fill:none;stroke:currentColor;stroke-width:35px;"/>
    </g>
    <g transform="matrix(6.12323e-17,1,-1,6.12323e-17,400,-0.000228134)">
        <path d="M174.297,253.32C159.615,238.491 141.539,227.299 124.38,215.599C119.758,212.448 114.957,209.573 110.089,206.822C109.367,206.414 105.829,205.228 105.573,204.308C104.993,202.228 107.048,198.35 107.935,196.677C111.606,189.755 118.405,184.567 124.747,180.232C148.316,164.121 173.901,151.181 197.516,135.044" style="fill:none;stroke:currentColor;stroke-width:35px;"/>
    </g>
    <g transform="matrix(6.12323e-17,1,-1,6.12323e-17,400,-0.000228134)">
        <path d="M294.149,183.143C273.9,185.189 253.365,187.549 233.017,188.291C221.179,188.723 209.381,187.946 197.552,188.231" style="fill:none;stroke:currentColor;stroke-width:35px;"/>
    </g>
</svg>
