<?xml version="1.0" encoding="UTF-8" standalone="no"?>
<!DOCTYPE svg PUBLIC "-//W3C//DTD SVG 1.1//EN" "http://www.w3.org/Graphics/SVG/1.1/DTD/svg11.dtd">
<svg width="100%" height="100%" viewBox="0 0 50 50" version="1.1" xmlns="http://www.w3.org/2000/svg" xmlns:xlink="http://www.w3.org/1999/xlink" xml:space="preserve" xmlns:serif="http://www.serif.com/" style="fill-rule:evenodd;clip-rule:evenodd;stroke-linecap:round;stroke-linejoin:round;stroke-miterlimit:1.5;">
    <g transform="matrix(1.0605,0,0,1.0605,-2.86831,-0.579635)">
        <path d="M15.209,3.847C18.837,6.088 22.575,8.395 25.785,11.22C28.673,13.763 31.311,16.529 33.999,19.276C35.145,20.448 36.3,21.629 37.553,22.688C37.921,22.999 38.288,23.311 38.66,23.617C38.76,23.699 39.257,24.01 39.256,24.101C39.252,24.718 38.396,25.618 38.038,26.07C36.822,27.603 34.955,28.98 33.318,30.141C30.463,32.165 27.372,33.841 24.522,35.87C22.676,37.184 21.043,38.746 19.253,40.131C17.321,41.627 15.254,42.929 13.301,44.394" style="fill:none;stroke:black;stroke-width:0.3rem;"/>
    </g>
</svg>
