<?xml version="1.0" encoding="UTF-8" standalone="no"?>
<!DOCTYPE svg PUBLIC "-//W3C//DTD SVG 1.1//EN" "http://www.w3.org/Graphics/SVG/1.1/DTD/svg11.dtd">
<svg width="100%" height="100%" viewBox="0 0 50 50" version="1.1" xmlns="http://www.w3.org/2000/svg" xmlns:xlink="http://www.w3.org/1999/xlink" xml:space="preserve" xmlns:serif="http://www.serif.com/" style="fill-rule:evenodd;clip-rule:evenodd;stroke-linecap:round;stroke-linejoin:round;stroke-miterlimit:1.5;">
    <g transform="matrix(9.12163e-17,1.48968,-1.48968,9.12163e-17,54.6693,-18.9505)">
        <path d="M27.063,26.904C29.055,25.109 30.852,23.093 32.764,21.213C33.233,20.752 33.707,20.296 34.169,19.828C34.245,19.751 34.622,19.426 34.602,19.381C34.401,18.937 33.74,18.386 33.382,18.062C32.107,16.908 30.709,15.892 29.32,14.882C28.69,14.424 28.058,13.967 27.414,13.53C27.195,13.381 26.975,13.234 26.754,13.088C26.682,13.041 26.61,12.993 26.538,12.946C26.504,12.924 26.44,12.838 26.436,12.879C26.364,13.553 26.527,14.285 26.623,14.951C26.783,16.06 26.949,17.168 27.069,18.282C27.382,21.195 27.361,24.058 27.03,26.965" style="fill:none;stroke:black;stroke-width:0.3rem;"/>
    </g>
</svg>
