<?xml version="1.0" encoding="UTF-8" standalone="no"?>
<!DOCTYPE svg PUBLIC "-//W3C//DTD SVG 1.1//EN" "http://www.w3.org/Graphics/SVG/1.1/DTD/svg11.dtd">
<svg width="100%" height="100%" viewBox="0 0 400 400" version="1.1" xmlns="http://www.w3.org/2000/svg" xmlns:xlink="http://www.w3.org/1999/xlink" xml:space="preserve" xmlns:serif="http://www.serif.com/" style="fill-rule:evenodd;clip-rule:evenodd;stroke-linecap:round;stroke-linejoin:round;stroke-miterlimit:1.5;">
  <defs>
    <style>
      path {
        stroke: black;
      }
      @media (prefers-color-scheme:dark) {
        path {
          stroke: white;
        }
      }
    </style>
  </defs>
  <path d="M380.365,22.921C329.397,26.2 278.272,26.711 227.302,30.128C215.623,30.911 203.983,32.543 192.291,33.084C162.94,34.442 133.349,34.401 103.978,34.228C80.971,34.093 58.371,34.299 35.53,31.408" style="fill:none;stroke-width:35px;"/>
  <path d="M22.554,27.146C21.514,68.872 29.76,110.269 27.68,151.947C26.751,170.562 24.116,188.857 22.479,207.4C20.852,225.826 20.244,244.358 18.826,262.808C17.508,279.967 15.614,297.719 16.095,314.956C16.65,334.842 19.783,354.284 23.29,373.811" style="fill:none;stroke-width:35px;"/>
  <path d="M23.159,374.07C66.324,362.402 111.773,367.39 155.794,366.753C190.594,366.25 225.848,366.07 260.612,364.333C292.079,362.761 323.493,359.693 355.007,359.082" style="fill:none;stroke-width:35px;"/>
  <path d="M377.662,16.514C371.013,87.746 372.282,159.448 368.788,230.84C367.626,254.582 362.921,277.742 360.516,301.301C358.798,318.129 358.883,335.901 359.513,352.826" style="fill:none;stroke-width:35px;"/>
  <path d="M227.243,135.001C241.443,150.291 259.151,162.056 275.927,174.3C280.445,177.598 285.152,180.624 289.93,183.53C290.638,183.961 294.136,185.259 294.363,186.187C294.876,188.285 292.698,192.095 291.758,193.739C287.867,200.54 280.906,205.507 274.428,209.638C250.355,224.985 224.369,237.1 200.249,252.472" style="fill:none;stroke-width:35px;"/>
  <path d="M105.206,201.304C125.51,199.907 146.11,198.206 166.471,198.116C178.317,198.063 190.084,199.218 201.917,199.311" style="fill:none;stroke-width:35px;"/>
</svg>
