<?xml version="1.0" encoding="UTF-8" standalone="no"?>
<!DOCTYPE svg PUBLIC "-//W3C//DTD SVG 1.1//EN" "http://www.w3.org/Graphics/SVG/1.1/DTD/svg11.dtd">
<svg width="100%" height="100%" viewBox="0 0 400 400" version="1.1" xmlns="http://www.w3.org/2000/svg" xmlns:xlink="http://www.w3.org/1999/xlink" xml:space="preserve" xmlns:serif="http://www.serif.com/" style="fill-rule:evenodd;clip-rule:evenodd;stroke-linecap:round;stroke-linejoin:round;stroke-miterlimit:1.5;">
    <path d="M23.449,123.439C66.871,129.251 111.577,127.382 155.238,126.048C167.972,125.659 180.76,126.81 193.469,126.353C193.707,126.344 194.058,123.439 194.151,122.899C194.823,119.031 195.205,115.113 195.44,111.195C196.372,95.657 194.513,80.264 196.259,64.792" style="fill:none;stroke:#000;stroke-width:35px;"/>
    <path d="M195.538,54C222.737,55.528 250.202,58.72 277.493,58.821C304.95,58.923 332.359,56.021 359.823,56.866" style="fill:none;stroke:#000;stroke-width:35px;"/>
    <path d="M367.843,58.93C358.177,106.812 360.07,154.513 359.964,203.052C359.874,243.936 357.204,284.727 355.878,325.57" style="fill:none;stroke:#000;stroke-width:35px;"/>
    <path d="M355.912,333.406C330.665,332.279 305.254,331.702 280.028,329.818C240.695,326.88 201.462,322.364 162.068,320.369C118.304,318.153 74.421,319.686 30.735,316.448" style="fill:none;stroke:#000;stroke-width:35px;"/>
    <path d="M21.996,317.367C25.787,274.059 26.81,230.693 26.988,187.253C27.05,171.964 29.17,156.868 28.268,141.565" style="fill:none;stroke:#000;stroke-width:35px;"/>
    <path d="M288.384,116.607C287.033,138.217 285.897,160.067 285.551,181.756C285.415,190.25 285.519,198.748 285.519,207.243C285.519,207.51 285.661,214.37 285.524,214.386C232.338,220.625 179.409,214.131 126.161,215.079" style="fill:none;stroke:#000;stroke-width:35px;"/>
    <path d="M118.019,172.384C101.705,183.173 85.015,193.754 69.002,204.984C68.927,205.037 71.043,208.281 71.798,209.492C73.73,212.591 75.696,215.668 77.681,218.733C87.087,233.252 97.05,247.857 107.201,261.873" style="fill:none;stroke:#000;stroke-width:35px;"/>
</svg>
