<?xml version="1.0" encoding="UTF-8" standalone="no"?>
<!DOCTYPE svg PUBLIC "-//W3C//DTD SVG 1.1//EN" "http://www.w3.org/Graphics/SVG/1.1/DTD/svg11.dtd">
<svg width="100%" height="100%" viewBox="0 0 400 400" version="1.1" xmlns="http://www.w3.org/2000/svg" xmlns:xlink="http://www.w3.org/1999/xlink" xml:space="preserve" xmlns:serif="http://www.serif.com/" style="fill-rule:evenodd;clip-rule:evenodd;stroke-linecap:round;stroke-linejoin:round;stroke-miterlimit:1.5;">
    <rect x="172.81" y="66" width="37.19" height="37.032" style="fill:#6b01ff;"/>
    <path d="M193.903,28.049C175.004,27.55 155.551,26.56 136.697,28.137C126.879,28.958 116.706,30.053 108.348,35.721C87.014,50.188 86.474,78.084 85.434,101.277C83.395,146.734 81.013,192.375 81.91,237.904C82.498,267.752 80.415,298.474 85.145,327.992C87.368,341.862 89.621,355.983 99.678,366.55C113.278,380.842 132.084,382.522 150.862,383.594C184.498,385.514 217.896,384.761 251.428,381.306C259.633,380.46 268.067,379.227 275.362,375.152C300.846,360.919 308.197,325.235 310.724,298.716C311.302,292.651 311.766,286.575 312.186,280.497C312.772,272.036 312.975,263.568 313.072,255.09C313.186,245.114 313.379,235.134 313.721,225.163C315.034,186.875 315.932,148.688 316.574,110.385C316.778,98.221 317.042,86.129 316.248,73.984C315.265,58.963 312.889,51.58 300.622,41.505C295.856,37.589 290.45,34.561 284.783,32.154C278.633,29.542 272.139,27.562 265.497,26.739C241.751,23.796 217.592,24.395 194.12,27.329" style="fill:none;stroke:#000;stroke-width:30px;"/>
    <path d="M200.276,38.977C199.799,44.708 199.248,50.428 198.696,56.152" style="fill:none;stroke:#000;stroke-width:22px;"/>
    <path d="M197.372,60.308C193.581,60.579 189.258,60.907 185.736,63.138C174.694,70.134 174.221,91.776 173.329,106.646C172.528,120.01 171.323,133.897 181.225,140.73C184.704,143.131 189.533,146.376 193.397,145.654C203.077,143.843 209.983,127.376 212.293,115.364C215.736,97.461 211.957,77.267 202.758,64.334" style="fill:none;stroke:#000;stroke-width:22px;"/>
    <path d="M192.386,145.756C191.615,160.789 192.332,175.967 193.18,191.151" style="fill:none;stroke:#000;stroke-width:22px;"/>
    <path d="M89.158,193.271C107.198,194.306 125.204,192.935 143.249,192.763C196.415,192.257 249.405,189.804 302.595,191.723" style="fill:none;stroke:#000;stroke-width:22px;"/>
    <path d="M166.715,55.423C177.437,47.41 186.657,37.639 197.123,29.365C197.68,28.925 198.105,30.392 198.589,30.912C200.228,32.672 201.835,34.461 203.439,36.252C209.764,43.309 215.47,50.84 221.484,58.149" style="fill:none;stroke:#6b01ff;stroke-width:22px;"/>
</svg>
