<?xml version="1.0" encoding="UTF-8" standalone="no"?>
<!DOCTYPE svg PUBLIC "-//W3C//DTD SVG 1.1//EN" "http://www.w3.org/Graphics/SVG/1.1/DTD/svg11.dtd">
<svg width="100%" height="100%" viewBox="0 0 400 400" version="1.1" xmlns="http://www.w3.org/2000/svg" xmlns:xlink="http://www.w3.org/1999/xlink" xml:space="preserve" xmlns:serif="http://www.serif.com/" style="fill-rule:evenodd;clip-rule:evenodd;stroke-linecap:round;stroke-linejoin:round;stroke-miterlimit:1.5;">
    <path d="M158.983,297.301C150.446,287.389 136.493,272.427 122.333,271.745C102.971,270.812 73.834,282.939 70.611,304.805C69.086,315.157 74.587,326.816 80.424,334.823C91.177,349.575 103.81,359.814 122.829,358.928C141.657,358.051 162.171,339.537 161.369,319.829C161.103,313.302 157.724,307.144 154.493,301.645" style="fill:none;stroke:#000;stroke-width:35px;"/>
    <path d="M163.991,309.981C167.436,218.196 159.455,126.504 158.645,34.759" style="fill:none;stroke:#000;stroke-width:35px;"/>
    <path d="M155.097,31C184.966,49.56 211.261,87.436 250.361,85.443C278.301,84.019 302.203,65.153 329.646,63.283" style="fill:none;stroke:#000;stroke-width:35px;"/>
</svg>
